HIERARCHY
ROOT Hips
{
	OFFSET 0.00000 0.00000 0.00000
	CHANNELS 6 Xposition Yposition Zposition Zrotation Yrotation Xrotation 
	JOINT LHipJoint
	{
		OFFSET 0 0 0
		CHANNELS 3 Zrotation Yrotation Xrotation
		JOINT LeftHip
		{
			OFFSET 1.37590 -1.78394 0.89329
			CHANNELS 3 Zrotation Yrotation Xrotation
			JOINT LeftKnee
			{
				OFFSET 2.47928 -6.81178 0.00000
				CHANNELS 3 Zrotation Yrotation Xrotation
				JOINT LeftAnkle
				{
					OFFSET 2.63345 -7.23535 0.00000
					CHANNELS 3 Zrotation Yrotation Xrotation
					JOINT LeftToe
					{
						OFFSET 0.23938 -0.65768 2.27012
						CHANNELS 3 Zrotation Yrotation Xrotation
						End Site
						{
							OFFSET 0.00000 -0.00000 1.18363
						}
					}
				}
			}
		}
	}
	JOINT RHipJoint
	{
		OFFSET 0 0 0
		CHANNELS 3 Zrotation Yrotation Xrotation
		JOINT RightHip
		{
			OFFSET -1.33617 -1.78394 0.89329
			CHANNELS 3 Zrotation Yrotation Xrotation
			JOINT RightKnee
			{
				OFFSET -2.56922 -7.05888 0.00000
				CHANNELS 3 Zrotation Yrotation Xrotation
				JOINT RightAnkle
				{
					OFFSET -2.56568 -7.04915 0.00000
					CHANNELS 3 Zrotation Yrotation Xrotation
					JOINT RightToe
					{
						OFFSET -0.27533 -0.75646 2.18105
						CHANNELS 3 Zrotation Yrotation Xrotation
						End Site
						{
							OFFSET -0.00000 -0.00000 1.15233
						}
					}
				}
			}
		}
	}
	JOINT lowerback
	{
		OFFSET 0 0 0
		CHANNELS 3 Zrotation Yrotation Xrotation
		JOINT Chest
		{
			OFFSET 0.06190 2.15152 -0.00935
			CHANNELS 3 Zrotation Yrotation Xrotation
			JOINT Chest2
			{
				OFFSET 0.06334 2.15332 0.00872
				CHANNELS 3 Zrotation Yrotation Xrotation
				JOINT lowerneck
				{
					OFFSET 0 0 0
					CHANNELS 3 Zrotation Yrotation Xrotation
					JOINT Neck
					{
						OFFSET -0.04202 1.66908 0.23524
						CHANNELS 3 Zrotation Yrotation Xrotation
						JOINT Head
						{
							OFFSET 0.07510 1.69357 -0.24440
							CHANNELS 3 Zrotation Yrotation Xrotation
							End Site
							{
								OFFSET 0.02556 1.71719 -0.11000
							}
						}
					}
				}
				JOINT LeftCollar
				{
					OFFSET 0 0 0
					CHANNELS 3 Zrotation Yrotation Xrotation
					JOINT LeftShoulder
					{
						OFFSET 3.67168 1.26306 -0.41342
CHANNELS 3 Zrotation Xrotation Yrotation
						JOINT LeftElbow
						{
OFFSET 0 -4.685100 -0.000000
CHANNELS 3 Zrotation Xrotation Yrotation
							JOINT LeftWrist
							{
OFFSET 0 -3.396260 -0.000000
CHANNELS 3 Zrotation Xrotation Yrotation
								JOINT lhand
								{
									OFFSET 0 0 0
CHANNELS 3 Zrotation Xrotation Yrotation
									JOINT LFingers
									{
OFFSET 0 -0.486080 -0.000000
CHANNELS 3 Zrotation Xrotation Yrotation
										End Site
										{
OFFSET 0 -0.391890 -0.000000
										}
									}
								}
								JOINT LThumb
								{
OFFSET 0 0.000000 0.000000
CHANNELS 3 Zrotation Xrotation Yrotation
									End Site
									{
OFFSET 0 -0.397870 0.397870
									}
								}
							}
						}
					}
				}
				JOINT RightCollar
				{
					OFFSET 0 0 0
					CHANNELS 3 Zrotation Yrotation Xrotation
					JOINT RightShoulder
					{
						OFFSET -3.04136 1.42992 -0.76390
CHANNELS 3 Zrotation Xrotation Yrotation
						JOINT RightElbow
						{
OFFSET 0 -5.555760 -0.000000
CHANNELS 3 Zrotation Xrotation Yrotation
							JOINT RightWrist
							{
OFFSET 0 -3.327740 -0.000000
CHANNELS 3 Zrotation Xrotation Yrotation
								JOINT rhand
								{
									OFFSET 0 0 0
CHANNELS 3 Zrotation Xrotation Yrotation
									JOINT RFingers
									{
OFFSET 0 -0.507630 -0.000000
CHANNELS 3 Zrotation Xrotation Yrotation
										End Site
										{
OFFSET 0 -0.409260 -0.000000
										}
									}
								}
								JOINT RThumb
								{
OFFSET 0 0.000000 0.000000
CHANNELS 3 Zrotation Xrotation Yrotation
									End Site
									{
OFFSET 0 -0.415510 0.415510
									}
								}
							}
						}
					}
				}
			}
		}
	}
}
MOTION
Frames: 5
Frame Time: 0.008333333333333333
33.036700 17.454500 6.520200 134.687000 -87.658100 -135.849000 0.000000 0.000000 0.000000 -25.465200 -3.803900 -9.928300 1.966500 8.795900 25.158900 0.260700 -6.882200 -9.617800 0.308800 3.572600 9.877100 0.000000 0.000000 0.000000 7.820900 5.448600 -50.132700 -15.106500 -19.415900 75.557200 -38.346000 18.782700 -155.153400 -2.184800 -9.240800 26.551500 -2.615900 -1.881300 4.321000 0.996100 -2.665100 -3.227300 2.742500 -1.202900 -5.609200 -6.278500 -3.117500 -18.043100 7.876400 -4.395900 17.913400 3.152800 -1.704800 8.902400 0.000000 0.000000 0.000000 -2.246000 -6.559200 -35.269400 30.156300 -41.027000 11.512100 14.935200 9.387400 -10.486900 0.000000 0.000000 0.000000 -7.125000 0.000000 0.000000 -10.674500 40.594500 -1.174800 0.000000 0.000000 0.000000 -7.779200 13.890300 10.697100 -16.437900 -26.110800 -3.836700 -6.383300 15.244600 13.292100 0.000000 0.000000 0.000000 7.125000 0.000000 -0.000000 18.809100 42.545800 1.184700
32.968653 17.470927 6.515526 126.510706 -87.863709 -127.968533 0.000000 0.000000 0.000000 -25.581260 -3.710144 -9.144594 1.914547 8.685316 24.816195 0.260366 -6.975021 -9.639035 0.294042 3.486456 9.636232 0.000000 0.000000 0.000000 7.547711 5.510971 -52.119144 -14.813545 -19.341309 74.673661 -38.301659 19.353251 -154.715670 -2.292246 -9.448479 27.209797 -2.719606 -2.076158 4.223037 0.957102 -2.920325 -2.785230 2.762333 -1.340062 -5.070035 -6.113692 -3.060872 -18.386806 7.872594 -4.326184 17.745186 3.130095 -1.651979 8.897792 0.000000 0.000000 0.000000 -1.968538 -8.059300 -35.702856 30.261809 -41.116616 11.581416 15.082112 9.560622 -10.490640 0.000000 0.000000 0.000000 -7.125000 0.000000 0.000000 -10.548089 40.610927 -1.156236 0.000000 0.000000 0.000000 -7.737531 13.617979 10.078002 -16.261873 -25.874139 -3.759705 -6.203333 15.170476 13.339646 0.000000 0.000000 0.000000 7.125000 0.000000 0.000000 18.979517 42.572778 1.183097
32.899701 17.486650 6.510616 118.004893 -88.044387 -119.735057 0.000000 0.000000 0.000000 -25.662321 -3.590180 -8.394376 1.862627 8.573423 24.470236 0.258724 -7.072071 -9.642922 0.281297 3.411017 9.425296 0.000000 0.000000 0.000000 7.281502 5.615722 -54.096662 -14.548609 -19.271282 73.872669 -38.270741 19.899373 -154.361529 -2.425127 -9.697601 28.005372 -2.824285 -2.253836 4.325704 0.951357 -3.160383 -2.495135 2.830151 -1.462661 -4.803310 -6.035525 -3.024043 -18.695111 7.887579 -4.278883 17.722404 3.127457 -1.614559 8.940566 0.000000 0.000000 0.000000 -1.742147 -9.306993 -36.114634 30.411310 -41.243009 11.679891 15.161911 9.705322 -10.459749 0.000000 0.000000 0.000000 -7.125000 0.000000 0.000000 -10.472684 40.586450 -1.154080 0.000000 0.000000 0.000000 -7.756631 13.617999 9.601851 -16.160039 -25.737172 -3.715226 -5.994374 15.036321 13.313402 0.000000 0.000000 0.000000 7.125000 0.000000 0.000000 19.150841 42.526974 1.217634
32.829832 17.501671 6.505462 109.174860 -88.199905 -111.153657 0.000000 0.000000 0.000000 -25.708741 -3.444386 -7.677746 1.810757 8.460255 24.121128 0.255802 -7.172956 -9.629781 0.270602 3.346511 9.244931 0.000000 0.000000 0.000000 7.022069 5.763067 -56.064764 -14.312101 -19.205955 73.155482 -38.252979 20.419799 -154.089906 -2.582371 -9.986249 28.932034 -2.930164 -2.414358 4.626811 0.978671 -3.385259 -2.356282 2.945762 -1.570727 -4.807002 -6.042682 -3.006593 -18.966242 7.920411 -4.253485 17.842756 3.144381 -1.592358 9.029524 0.000000 0.000000 0.000000 -1.566552 -10.302811 -36.504689 30.604703 -41.406085 11.807464 15.175485 9.821891 -10.394842 0.000000 0.000000 0.000000 -7.125000 0.000000 0.000000 -10.447642 40.521766 -1.168079 0.000000 0.000000 0.000000 -7.836135 13.888645 9.267889 -16.131487 -25.698677 -3.702864 -5.758267 14.844143 13.214665 0.000000 0.000000 0.000000 7.125000 0.000000 0.000000 19.321906 42.409799 1.287530
32.756176 17.515962 6.497782 100.746947 -88.260873 -102.885076 0.000000 0.000000 0.000000 -25.756888 -3.321648 -7.046894 1.762075 8.351341 23.786771 0.256270 -7.204074 -9.645941 0.271003 3.348715 9.251074 0.000000 0.000000 0.000000 6.735926 6.036389 -57.917585 -14.212335 -19.177041 72.851910 -38.208772 20.639565 -153.771175 -2.576628 -9.975965 28.898778 -3.082952 -2.545977 4.888981 1.032895 -3.577112 -2.372710 3.118116 -1.656136 -4.947436 -5.959076 -2.945291 -18.814723 7.802615 -4.170413 17.794008 3.100575 -1.563977 8.974366 0.000000 0.000000 0.000000 -1.436936 -10.905082 -36.842586 30.865203 -41.623046 11.980353 15.232514 9.960122 -10.383223 0.000000 0.000000 0.000000 -7.125000 0.000000 0.000000 -10.395955 40.514887 -1.163939 0.000000 0.000000 0.000000 -7.963080 14.357559 9.065685 -16.068983 -25.614069 -3.675753 -5.831656 14.932690 13.227754 0.000000 0.000000 0.000000 7.125000 0.000000 0.000000 19.263074 42.429565 1.273439
